<?xml version="1.0" encoding="UTF-8"?>
<svg width="3257px" height="2859px" viewBox="0 0 3257 2859" version="1.1" xmlns="http://www.w3.org/2000/svg" xmlns:xlink="http://www.w3.org/1999/xlink">
    <!-- Generator: Sketch 45 (43475) - http://www.bohemiancoding.com/sketch -->
    <title>Plot</title>
    <desc>Created with Sketch.</desc>
    <defs></defs>
    <g id="Page-1" stroke="none" stroke-width="1" fill="none" fill-rule="evenodd">
        <g id="Plot" transform="translate(0.000000, -17.000000)">
            <path d="M3091.86659,633.481444 C3083.04498,650.773128 3080.5457,770.381272 3080.5457,781.9823 C3080.5457,793.583329 3094.94537,814.873853 3091.86659,822.84956 C3088.78782,830.825267 3084.44567,841.624331 3084.44567,841.624331 L3096.53557,925.380242 C3096.53557,925.380242 3091.82814,974.47039 3088.13691,983.259049 C3084.44567,992.047707 3096.35979,1015.60131 3096.35979,1015.60131 L3089.14211,1034.90889 C3089.14211,1034.90889 3089.19714,1039.36914 3080.5457,1039.36914 C3071.89427,1039.36914 3055.1827,1039.36914 3055.1827,1039.36914 C3055.1827,1039.36914 3033.52089,1056.74657 3019.90396,1056.74657 C3006.28703,1056.74657 2990.57182,1056.74657 2990.57182,1056.74657 C2990.57182,1056.74657 2967.18143,1053.13915 2978.11389,1039.36914 C2979.99203,1037.00352 2980.91374,1036.47942 2982.66326,1034.90889 C2984.41277,1033.33836 2998.48161,1028.80005 2998.48161,1028.80005 L3019.90396,1012.36049 L3027.1546,995.343453 L3039.4038,987.384225 L3029.83515,978.919649 C3029.83515,978.919649 3040.21675,947.664983 3037.80536,925.050668 C3035.39397,902.436352 3003.04072,896.725042 3019.90396,870.095408 C3036.7672,843.465774 3038.09648,837.60352 3038.09648,837.60352 L3030.26359,813.945551 L3031.54893,797.713998 L3003.26044,738.461964 C3003.26044,738.461964 2993.70277,682.082723 2998.48161,672.552522 C3003.26044,663.022321 3004.59522,616.793979 3004.59522,616.793979 L3008.23702,587.384932 C3008.23702,587.384932 3003.26044,566.020463 3003.26044,558.717428 C3003.26044,551.414393 3008.23702,503.661978 3008.23702,503.661978 L2990.57182,541.052226 L2972.09366,606.857303 L2973.75801,626.273999 L2969.15495,641.545038 C2969.15495,641.545038 2969.96087,649.453807 2960.95404,652.009844 C2951.94721,654.56588 2945.62342,648.223022 2945.62342,648.223022 L2939,626.273999 L2939,616.793979 L2954.87338,591.62546 L2960.95404,503.661978 C2960.95404,503.661978 2947.759,503.661978 2950.30328,494.74149 C2952.84757,485.821003 2962.58543,487.24916 2962.58543,487.24916 C2962.58543,487.24916 2951.71691,484.371573 2950.80863,481.360759 C2949.90035,478.349944 2954.87338,477.147696 2958.03181,472.154639 C2961.19023,467.161583 2972.09366,443.605455 2972.09366,443.605455 L2972.8698,416.648035 C2972.8698,416.648035 2982.55035,408.843733 2982.66326,404.922344 C2982.77616,401.000955 2990.57182,365.384214 2990.57182,365.384214 C2990.57182,365.384214 2990.76925,332.327497 2998.48161,319.53559 C3006.19396,306.743684 3003.59521,303.814788 3016.34086,298.016284 C3029.08652,292.21778 3036.64636,292.21778 3036.64636,292.21778 C3036.64636,292.21778 3032.83427,282.779694 3031.54893,278.04614 C3030.26359,273.312587 3065.00403,275.52272 3065.00403,275.52272 C3065.00403,275.52272 3072.09819,253.529307 3065.00403,246.661505 C3057.90986,239.793703 3052.29079,222.807169 3052.29079,222.807169 C3052.29079,222.807169 3049.22343,200.393207 3052.29079,185.902523 C3055.35814,171.411838 3059.83297,166.733893 3065.00403,162.747758 C3070.17509,158.761624 3078.33161,157.632534 3083.62723,156.502318 C3088.92284,155.372102 3086.84607,156.502318 3094.26699,156.502318 C3101.68792,156.502318 3110.91049,160.555801 3115.66188,162.747758 C3120.41327,164.939715 3121.21722,165.217769 3124.90911,170.638435 C3128.60099,176.0591 3129.47986,178.411103 3131.43203,185.902523 C3133.3842,193.393943 3133.63532,204.125143 3133.63532,204.125143 C3133.63532,204.125143 3137.04804,204.693311 3135.46383,213.917721 C3133.87962,223.142131 3125.6425,231.848582 3125.6425,231.848582 L3123.65003,242.570547 C3123.65003,242.570547 3119.84737,247.349676 3118.25483,250.532394 C3116.6623,253.715113 3115.66188,258.948232 3115.66188,262.879317 L3115.66188,275.52272 L3125.6425,278.04614 L3135.46383,285.659585 C3135.46383,285.659585 3157.19928,291.899829 3169.55284,298.016284 C3181.90639,304.132739 3193.9007,325.532358 3193.9007,325.532358 L3200.78553,347.89601 L3200.78553,391.914 L3206.80576,431.688362 L3208.98645,455.143093 L3204.05381,471.753657 C3204.05381,471.753657 3212.24924,489.298015 3210.61784,500.536512 C3208.98645,511.775008 3209.17321,573.603218 3209.17321,573.603218 L3207.32759,587.016907 L3214.56724,606.857303 L3214.56724,623.715047 C3214.56724,623.715047 3214.32556,646.327967 3200.78553,648.223022 C3187.2455,650.118076 3187.1002,641.545038 3187.1002,641.545038 L3179.68726,623.715047 L3184.52651,602.968322 C3184.52651,602.968322 3190.6612,595.53092 3190.6612,587.384932 C3190.6612,579.238945 3173.16168,503.661978 3173.16168,503.661978 L3175.79278,481.360759 C3175.79278,481.360759 3170.43182,477.072017 3169.55284,471.753657 C3168.67385,466.435297 3169.55284,443.605455 3169.55284,443.605455 L3160.73671,477.147696 C3160.73671,477.147696 3168.19673,487.854231 3169.55284,494.74149 C3170.90895,501.62875 3173.16168,533.699419 3173.16168,533.699419 L3179.68726,558.717428 L3173.16168,573.603218 L3179.68726,587.384932 L3175.79278,602.968322 C3175.79278,602.968322 3189.05019,742.076542 3180.31345,763.036031 C3171.57671,783.995519 3173.26055,781.9823 3173.26055,781.9823 L3175.79278,813.945551 L3175.05673,822.84956 C3175.05673,822.84956 3191.31327,850.429326 3187.1002,870.095408 C3182.88714,889.76149 3195.83694,941.453428 3187.1002,955.938235 C3178.36347,970.423042 3203.18044,969.933246 3203.18044,969.933246 L3203.14748,998.776523 L3215.48758,1020.39199 C3215.48758,1020.39199 3223.73567,1030.50171 3234.50557,1034.90889 C3245.27547,1039.31608 3252.72403,1045.65592 3252.72403,1045.65592 C3252.72403,1045.65592 3255.13722,1049.44958 3252.72403,1056.74657 C3250.31084,1064.04356 3259.64926,1064.44315 3245.12601,1066.46454 C3230.60275,1068.48594 3215.48758,1064.13291 3215.48758,1064.13291 L3193.9007,1053.34332 L3182.42812,1045.65592 C3182.42812,1045.65592 3149.64708,1042.0216 3146.56201,1039.36914 C3143.47695,1036.71667 3141.89614,1028.80005 3141.89614,1028.80005 L3146.56201,1012.36049 L3134.89638,1006.731 L3146.56201,998.776523 C3146.56201,998.776523 3132.20104,1001.90106 3132.20104,978.919649 C3132.20104,955.938235 3125.6425,913.256256 3125.6425,832.335818 C3125.6425,824.880254 3132.20104,820.81169 3132.20104,820.81169 L3115.82118,774.407576 L3099.08428,705.839695 C3099.08428,705.839695 3100.68821,616.189759 3091.86659,633.481444 Z" id="Path" stroke="#000000" stroke-width="5"></path>
            <g id="Cartoon" transform="translate(1591.000000, 241.000000)" stroke-width="5">
                <path d="M128.75351,195.11139 L139.558861,185.766166 L146.876963,177.686619 C146.876963,177.686619 156.080381,167.308665 159.664094,159.394413 C163.247808,151.480162 172.636079,120.531374 172.636079,120.531374 C172.636079,120.531374 165.78798,135.900642 159.664094,142.4842 C153.540209,149.067758 132.371197,165.24959 132.371197,165.24959 C132.371197,165.24959 131.203915,173.119265 129.724381,193.593155 C129.697934,193.959133 129.346318,194.480535 128.75351,195.11139 C124.731446,199.391594 109.606576,208.710291 109.606576,208.710291 C109.606576,208.710291 115.196895,208.927761 120.360128,208.710291 C125.52336,208.49282 128.388431,207.763702 128.26595,208.710291 C127.684777,213.201862 126.99354,217.118612 126.171494,220.043244 C121.292052,237.403073 122.528289,264.197497 122.568689,276.687071 C122.597767,285.67639 128.494678,305.023016 144.782635,325.070668 C161.070592,345.118321 159.805539,341.782896 163.996636,345.204681 C178.951261,357.414258 189.132519,364.250826 193.60279,370.678035 C198.073061,377.105245 222.353653,380.228749 231.311159,380.228749 C240.268666,380.228749 258.838377,376.507069 273.746349,370.678035 C273.997819,370.57971 272.71326,370.156684 271.451314,369.745756 C270.189368,369.334828 268.330857,367.68 268.330857,367.68 C268.330857,367.68 265.342652,365.398267 264.580212,363.663022 C264.263777,362.942842 262.619914,360.559107 261.551194,357.216081 C260.482475,353.873056 259.051863,346.56182 259.051863,346.56182 C259.051863,346.56182 263.319875,350.538372 268.330857,352.603355 C273.341839,354.668338 280.353019,355.339844 280.353019,355.339844 L287.451482,353.685261 L297.793968,348.134828 L306.318384,342.412179 C306.318384,342.412179 313.36431,337.180953 315.727068,334.904296 C317.546106,333.151544 319.192122,331.551017 320.600775,330.173574 C323.797492,327.047687 326.474762,323.727987 326.474762,323.727987 C326.474762,323.727987 329.321357,318.897183 330.372588,316.84423 C331.245515,315.139486 342.543048,286.905576 347.663321,258.051631 C352.783594,229.197685 351.725583,229.158588 351.725583,229.158588" id="Path" stroke="#000000"></path>
                <path d="M192.547692,326.269113 C192.547692,326.269113 195.791765,335.708483 201.903876,337.477488 C209.094905,339.558759 208.255343,339.291862 211.614853,339.558759 C214.974364,339.825655 225.642118,339.066267 225.642118,336.353256" id="Path-2" stroke="#000000"></path>
                <path d="M177.036972,307.417304 C177.036972,307.417304 177.488155,311.459341 183.630872,312.410092 C189.773588,313.360844 189.447729,311.72613 191.897304,312.410092 C200.828918,314.903948 201.569538,316.999027 202.131238,317.461347 C203.596388,318.667272 206.259747,322.873813 206.259747,322.873813 C206.259747,322.873813 209.428846,317.461347 217.266664,317.461347 C221.961508,317.461347 233.290367,321.799879 241.445691,324.690134 C249.601016,327.580389 250.145162,322.873813 250.145162,322.873813" id="Path-3" stroke="#000000" transform="translate(213.591067, 316.523067) rotate(-2.000000) translate(-213.591067, -316.523067) "></path>
                <path d="M223.242537,284.800554 C223.242537,284.800554 213.52929,289.889811 209.843269,289.889811 C206.157247,289.889811 193.984615,284.08924 193.984615,279.71945 C193.984615,275.349659 198.952288,268.73179 201.230327,261.600308 C203.508365,254.468826 205.204669,245.327729 204.178736,240.030581" id="Path-4" stroke="#000000"></path>
                <path d="M247.150769,207.979266 C262.595461,195.703469 283.495675,184.467167 295.640787,184.467167 C307.785899,184.467167 306.087001,184.467183 311.361922,186.415703" id="Path-5" stroke="#000000"></path>
                <path d="M153.800004,169.2776 C153.800004,169.2776 144.600152,165.582841 133.633846,175.656079" id="Path-6" stroke="#000000"></path>
                <path d="M299.589992,244.649439 C302.935067,244.649439 306.656651,242.863749 309.185882,239.951596 C311.006353,237.855507 311.859575,235.89568 312.545788,231.574157 C313.232,227.252635 312.073964,224.459557 311.724158,223.688319 C309.857992,220.210319 308.434816,219.314626 307.185285,218.39422 C305.935753,217.473813 303.595236,216.451399 301.531915,216.183231 C300.407082,216.037038 298.019466,215.9981 296.397483,216.298292 C294.7755,216.598484 293.609592,216.871486 291.465336,218.23195 C289.32108,219.592414 288.116848,221.101559 287.312551,222.245372 C286.508255,223.389185 285.000847,226.70364 285.000847,229.147205 C285.000847,232.109701 285.419743,236.489037 287.629876,239.120379 C289.367805,241.189524 290.053976,241.711691 291.534666,242.65336 C293.015355,243.59503 297.278224,244.649439 299.589992,244.649439 Z" id="Oval" stroke="#000000" fill="#D8D8D8" transform="translate(298.880000, 230.360785) rotate(-2.000000) translate(-298.880000, -230.360785) "></path>
                <path d="M172.332592,227.094801 C178.752042,227.094801 183.926154,222.274375 183.926154,215.443358 C183.926154,213.615575 183.482305,211.108583 182.595423,209.145016 C181.70854,207.18145 180.556062,206.050759 180.115288,205.585463 C179.189761,204.608444 175.725673,202.66055 171.712308,202.66055 C167.698942,202.66055 165.236397,204.100589 163.686835,205.585463 C162.137273,207.070336 159.498462,211.325464 159.498462,215.443358 C159.498462,222.274375 165.913143,227.094801 172.332592,227.094801 Z" id="Oval-2" stroke="#000000" fill="#D8D8D8"></path>
                <path d="M108.597411,208.795417 C108.597411,208.795417 133.548262,210.553975 146.50687,203.851656 C159.465478,197.149337 260.078068,124.279813 260.078068,124.279813 C260.078068,124.279813 235.849679,144.772456 226.453216,167.055865 C218.655946,185.546839 220.134003,194.031099 225.690602,205.828578 C231.247202,217.626057 242.968747,225.204744 242.968747,225.204744 C242.968747,225.204744 239.688344,215.271608 239.688344,208.795417 C239.688344,202.319226 242.968747,193.128527 242.968747,193.128527 C242.968747,193.128527 253.438673,178.311802 260.078068,174.742278 C262.980564,173.181816 273.948656,164.147957 284.528272,158.699803 C295.107888,153.251648 311.621427,148.145543 311.621427,148.145543 C311.621427,148.145543 298.988821,161.692845 305.846521,174.742278 C307.937391,178.720969 309.41445,184.67599 316.389216,193.128527 C319.063897,196.369904 326.581939,208.364684 334.528939,215.861676 C342.475939,223.358668 361.584254,236.131679 361.584254,236.131679" id="Path-7" stroke="#000000"></path>
                <path d="M146.099367,325.780293 C146.099367,325.780293 137.413723,349.532474 150.25008,358.54654 C163.086437,367.560606 179.21775,369.782096 179.21775,369.782096 C179.21775,369.782096 154.045683,379.227067 144.562497,374.504581 C135.079311,369.782096 115.813132,363.327256 111.356791,354.56358 C106.900451,345.799905 112.032083,372.635385 119.701879,373.569983 C127.371675,374.504581 93.6624115,376.68531 90.2335615,370.195532 C86.8047115,363.705753 73.5201006,353.809497 73.5201006,344.134515 C73.5201006,334.459534 84.2432615,308.279146 84.2432615,308.279146 C84.2432615,308.279146 50.4117471,347.308072 58.1310258,356.339608 C65.8503045,365.371143 80.0459765,372.239419 80.0459765,372.239419 C80.0459765,372.239419 53.6019166,383.731188 39.9214453,383.731188 C26.240974,383.731188 9.72544332,389.61537 1.66269747,341.336545 C-6.40004838,293.057719 37.6394262,221.611928 37.6394262,221.611928 C37.6394262,221.611928 71.133295,184.20763 75.5896357,171.568721 C80.0459765,158.929813 108.393659,78.6546473 119.701879,65.5266033 C131.010098,52.3985594 168.243717,7.39392819 208.656411,3.17513562 C249.069105,-1.04365695 294.273425,1.4748079 299.946454,3.17513562 C305.619484,4.87546333 345.312112,7.29079605 375.990157,31.7454118 C406.668202,56.2000276 409.428064,90.4470165 409.428064,90.4470165 L421.752131,171.568721 C421.752131,171.568721 437.656495,228.97864 447.547185,243.183947 C457.437874,257.389253 470.239214,301.48657 466.231127,322.810543 C462.22304,344.134515 441.350134,386.907657 421.752131,390.002602 C402.154128,393.097548 366.791566,401.229424 360.93807,397.130004 C355.084575,393.030583 408.62179,378.33323 409.428064,361.233873 C410.234339,344.134515 349.437742,401.369177 330.328743,395.68589 C311.219745,390.002602 299.946454,382.199965 299.946454,382.199965 C299.946454,382.199965 310.967339,381.673121 326.154744,375.986545 C339.423366,371.018413 354.230885,358.54654 354.230885,358.54654 C354.230885,358.54654 349.343942,362.937755 341.180279,365.994208 C333.016616,369.050661 319.881179,371.368426 314.796193,372.239419 C305.039397,373.910631 271.872381,373.441876 266.408924,365.994208 C260.945468,358.54654 259.056399,346.248279 259.056399,346.248279 C259.056399,346.248279 267.718757,355.224495 279.696446,355.224495 C291.674135,355.224495 323.153773,333.757858 330.450994,316.37026" id="Path-8" stroke="#000000"></path>
                <path d="M176.626401,183.860367 L196.858462,204.097859" id="Line" stroke="#000000" stroke-linecap="square"></path>
                <path d="M153.551327,376.082485 C153.551327,376.082485 221.870685,423.661618 233.36021,459.331695 C244.849734,495.001772 268.698388,421.827906 291.318179,403.541156 C313.93797,385.254407 324.59638,394.176972 324.59638,394.176972" id="Path-9" stroke="#000000"></path>
                <path d="M178.896923,358.608563 L157.343077,362.920489" id="Line" stroke="#000000" stroke-linecap="square"></path>
                <path d="M186.371546,362.396142 C186.371546,373.483855 186.150504,382.257545 186.150504,385.242409 C186.150504,386.714355 190.259736,395.775291 196.793158,402.641552 C203.32658,409.507812 212.652898,414.545831 212.652898,414.545831 C212.652898,414.545831 234.121243,428.403867 240.962559,427.932493 C247.803874,427.461119 259.194729,422.256729 259.194729,422.256729 C259.194729,422.256729 265.385208,420.453726 273.055046,414.545831 C280.724885,408.637937 286.111856,401.731955 288.869573,398.611483 C295.262199,391.377962 294.842722,380.981282 294.842722,380.981282 L294.842722,372.877077" id="Path-10" stroke="#000000"></path>
                <path d="M258.769103,231.561529 C258.769103,231.561529 262.248421,221.806966 267.945918,217.68408 C273.643414,213.561193 275.377671,213.31155 281.863034,212.39744 C288.348397,211.483331 293.149565,212.291001 297.311032,213.279473 C301.472499,214.267945 303.384151,215.222123 307.281668,217.68408 C311.050313,220.064631 313.22246,222.579817 314.473843,224.303456 C315.725226,226.027095 315.155802,225.344118 316.188656,226.712702 C319.147802,230.633721 319.997349,238.10072 319.997349,238.10072" id="Path-11" stroke="#000000"></path>
                <path d="M187.205069,226.282878 C187.205069,224.67093 186.867176,219.152948 185.834221,216.263292 C184.801266,213.373636 182.652729,208.54122 180.277918,206.247571 C176.317162,202.42218 173.608473,201.146058 168.303977,199.701909 C162.999482,198.257761 156.099951,198.955138 154.049792,199.701909 C153.263517,199.98831 150.500511,201.39213 149.453576,202.669372 C148.406641,203.946613 146.552558,207.434711 146.549978,208.721605 C146.545251,211.079367 146.442963,213.331179 146.549978,213.687449" id="Path-12" stroke="#000000"></path>
                <path d="M261.116217,235.596169 C266.38918,240.899135 281.663267,245.108632 281.663267,245.108632 L291.748345,246.052017" id="Path-13" stroke="#979797" transform="translate(276.432281, 240.824093) rotate(1.000000) translate(-276.432281, -240.824093) "></path>
                <path d="M147.575008,215.531459 C149.686336,219.25497 154.903926,223.266142 154.903926,223.266142 C154.903926,223.266142 158.887228,226.750234 161.952406,226.750234" id="Path-14" stroke="#979797" transform="translate(154.763707, 221.140846) rotate(-12.000000) translate(-154.763707, -221.140846) "></path>
            </g>
            <g id="Humanoid" transform="translate(831.000000, 353.000000)" stroke="#000000" stroke-width="5">
                <path d="M257.521878,119.879805 C261.753723,120.934281 273.431579,119.949015 273.431579,84.37 C273.431579,58.5076571 272.143149,31.0333306 257.521878,15.5568359 C242.900607,0.0803412862 222.651457,0 206.106267,0 C188.082101,0 170.884862,1.10250563 158.800739,15.5568359 C146.716617,30.0111662 138.780955,60.3610632 138.780955,84.37 C138.780955,102.071505 135.201127,113.369604 149.244678,119.879805 C154.247346,122.198903 146.814935,102.004805 179.206863,102.004805 L205.902181,102.004805 L226.749779,102.004805 C255.036278,102.004805 253.290033,118.825328 257.521878,119.879805 Z" id="Oval"></path>
                <path d="M99.6645246,230.950586 C131.685413,230.950586 131.134868,215.069766 131.134868,215.069766 C131.134868,215.069766 158.155997,140.560144 152.821053,131.582344 C147.486109,122.604543 124.793741,120.12 103.789474,120.12 C71.7685852,120.12 44.7256579,135.523372 44.7256579,168.298711 C44.7256579,201.074049 67.6436361,230.950586 99.6645246,230.950586 Z" id="Oval-2"></path>
                <path d="M300.93543,223.130273 C327.379971,223.130273 345.649015,206.158982 345.649015,175.894253 C345.649015,165.340603 343.59022,147.409324 327.441902,132.252997 C318.027228,123.416666 267.710019,115.039733 259.207605,123.880226 C250.705191,132.72072 269.860065,137.1849 279.460461,150.943417 C293.891717,171.625137 290.935055,181.775782 293.891717,190.776764 C296.848378,199.777746 290.477768,223.130273 300.93543,223.130273 Z" id="Oval-3"></path>
                <path d="M147.445559,125.987292 L164.739667,125.125 L257.333555,125.125 L257.333555,126.587606 C257.333555,126.587606 256.55772,128.437721 257.333555,129.867452 C257.694486,130.532584 258.387598,131.863444 259.247219,132.711379 C259.774144,133.23114 260.134085,133.866411 260.642883,134.248637 C261.151681,134.630862 261.54104,134.507283 261.635847,134.72046 C271.603196,157.132508 295.432441,211.835354 295.432441,222.561884 C295.432441,236.125022 301.915161,346.06 298.673801,346.06 C298.407479,346.06 296.53203,337.518326 292.725302,336.867834 C288.918574,336.217343 188.965515,326.632957 188.965515,326.632957 L177.815209,326.632957 L169.497239,329.109858 L150.156416,340.728892 L138.372782,211.175908 L160.241921,133.357031 L147.445559,125.987292 Z" id="Line" stroke-linecap="square"></path>
                <path d="M299.350919,345.049624 C285.309143,372.052046 275.752235,382.08439 287.551577,388.072515 C299.350919,394.06064 309.07559,402.182593 309.07559,402.182593 C309.07559,402.182593 325.024274,426.291499 325.024274,440.669702 C325.024274,455.047905 311.301248,530.519507 311.301248,530.519507 L274.835129,675.379624 L290.912432,689.47675 C290.912432,689.47675 294.993491,695.925505 295.087853,700.318602 C295.141387,702.810922 295.089052,706.229291 293.947768,708.430554 C292.806485,710.631817 290.912432,713.822046 290.912432,713.822046 L285.935386,713.822046 L196.925919,713.822046 L199.140393,694.667866 L209.049845,690.882763 C209.049845,690.882763 208.395269,685.971165 207.625836,685.21646 C206.856402,684.461755 202.970126,679.466022 202.970126,679.466022 C202.970126,679.466022 200.649697,672.701604 201.140509,670.461624 C187.105035,664.706414 192.140131,635.098478 202.451061,603.193501 C203.048557,601.344677 212.024256,575.608789 218.655306,565.093473 C225.286355,554.578157 225.966593,565.725303 226.183814,565.093473 C226.580942,563.938348 221.707401,562.74292 226.183814,546.505575 C230.772253,530.263626 239.240732,536.682775 239.240732,536.682775 C239.240732,536.682775 232.068479,531.635245 231.453342,525.755412 C230.838206,519.875579 231.324689,464.54754 226.183814,448.769311 C219.478879,428.190718 171.119185,553.289654 171.119185,553.289654 C171.119185,553.289654 162.137861,577.155796 152.385229,577.155796 C142.632598,577.155796 97.6772347,621.55353 97.6772347,621.55353 C97.6772347,621.55353 102.48522,633.923749 103.945985,641.497159 C105.40675,649.070569 99.686959,652.705611 99.686959,652.705611 C99.686959,652.705611 53.9346091,657.540927 45.4551087,646.487111 C36.9756084,635.433295 16.7548073,617.944384 24.4972085,610.782495 C33.343919,602.599097 27.7703268,552.092397 37.5285505,552.092397 C44.6835374,552.092397 72.4720463,533.050448 88.0868179,522.114718 C88.8544253,521.577128 90.7868753,518.440467 93.8534167,515.14149 C96.919958,511.842514 99.7056627,510.647407 99.686959,510.380635 C98.7127683,496.485641 95.4531413,445.277434 97.6785537,410.832908 C98.6118723,396.387174 100.509949,384.889988 103.945985,380.330405 C116.936445,363.092202 118.004537,322.633257 118.004537,322.633257 L106.7439,230.23" id="Path-2"></path>
                <path d="M234.233683,568.438993 C237.281097,568.438993 239.751515,561.716549 239.751515,553.423993 C239.751515,545.131437 237.281097,538.408993 234.233683,538.408993 C231.186269,538.408993 228.715852,545.131437 228.715852,553.423993 C228.715852,561.716549 231.186269,568.438993 234.233683,568.438993 Z" id="Oval-4" transform="translate(234.233683, 553.423993) rotate(10.000000) translate(-234.233683, -553.423993) "></path>
                <path d="M98.0631579,622.765 L31.2743101,593.217314" id="Line" stroke-linecap="square"></path>
                <path d="M171.811842,553.175391 C113.491776,526.753906 117.294408,517.190781 117.294408,517.190781 C117.294408,517.190781 145.394737,418.498438 139.388816,394.17168 C133.382895,369.844922 128.355592,358.058594 128.355592,358.058594 L113.515724,360.226183" id="Path-3"></path>
                <path d="M215.893814,385.910143 C215.893814,385.910143 222.878947,424.386016 215.385526,449.634453 C213.995082,454.319437 208.874981,465.689127 207.334198,469.825588" id="Path-4"></path>
                <path d="M216.463518,386.387674 L128.406059,358.061818" id="Path-5"></path>
                <path d="M305.843421,555.041094 L248.490789,546.662187 L246.516776,391.177617 C246.516776,391.177617 275.209868,387.574688 290.526645,393.842109 C305.843421,400.109531 310.022188,403.236704 310.022188,403.236704" id="Path-6"></path>
                <path d="M223.920106,446.577325 C224.248109,446.394905 235.830701,442.808438 240.740132,442.808438 C247.361184,442.808438 243.341691,388.628795 243.341691,388.628795 L282.574671,380.581094" id="Path-7"></path>
                <path d="M102.116459,545.326236 C107.752852,545.326236 112.322051,537.643442 112.322051,528.166236 C112.322051,518.689029 107.752852,511.006236 102.116459,511.006236 C96.4800663,511.006236 91.9108671,518.689029 91.9108671,528.166236 C91.9108671,537.643442 96.4800663,545.326236 102.116459,545.326236 Z" id="Oval-4" transform="translate(102.116459, 528.166236) rotate(29.000000) translate(-102.116459, -528.166236) "></path>
                <path d="M170.195047,102.295273 C170.195047,102.295273 176.632506,95.2649387 179.206863,89.6047516 C181.781219,83.9445646 182.906243,74.3474178 182.906243,74.3474178 C182.906243,74.3474178 184.18504,65.3635312 184.506144,60.0580979 C184.827248,54.7526645 184.098345,44.3854419 183.798918,37.0326648 C183.385838,26.8889941 181.208874,24.8050214 180.440461,21.1611945 C179.672047,17.5173677 180.440461,15.5819625 180.440461,15.5819625 C180.440461,15.5819625 181.168626,12.2697961 183.798918,11.4938319 C185.821571,10.897128 185.741281,10.1888526 191.56538,9.17133568 C197.389478,8.1538188 198.75821,8.09933294 203.99949,7.96462945 C209.240769,7.82992596 231.93592,7.42984002 235.711254,9.6274768 C237.135305,10.2356069 243.103534,11.4938319 247.504941,15.5819625 C249.376312,16.9367617 253.741776,23.2561182 253.741776,23.2561182 C253.741776,23.2561182 256.402843,25.6510484 258.907502,32.8674636 C261.412161,40.0838788 265.171318,62.2646192 265.171318,70.2048227 C265.171318,83.0971665 266.726645,102.295273 260.692763,102.295273 C254.658882,102.295273 253.741776,113.997812 253.741776,113.997812 C253.741776,113.997812 252.747034,112.448672 252.184285,111.67822 C251.621536,110.907767 250.365283,109.375096 250.365283,109.375096 C250.365283,109.375096 248.469093,107.817699 247.504941,107.153829 C246.464271,106.437272 245.267729,105.902484 244.227059,105.185928 L239.28292,103.461926 L235.711254,102.746376 L232.102797,102.259134 L228.010461,101.988506 L178.987169,101.930594 L175.692563,102.063123 C175.692563,102.063123 173.860057,102.140507 172.943805,102.179198 C172.027552,102.21789 170.195047,102.295273 170.195047,102.295273 Z" id="Path-8" fill="#000000"></path>
                <path d="" id="Path-9"></path>
                <path d="M302.012829,571.46708 L242.926645,563.009971 L213.305263,676.169893 C213.305263,676.169893 218.855428,663.88083 238.257237,663.88083 C257.659046,663.88083 274.825345,675.466369 274.825345,675.466369" id="Path-10"></path>
                <polyline id="Path-11" points="30.4441303 593.105486 32.8096703 592.395107 100.771362 548.581052 150.831076 577.529161"></polyline>
                <path d="M138.841484,215.896335 L159.292239,204.832014 L170.16504,202.594756 L286.841447,208.550977 C286.841447,208.550977 290.362645,210.868307 291.443411,212.577632 C292.524177,214.286957 295.699342,222.560508 295.699342,222.560508" id="Path-12"></path>
                <path d="M344.186327,190.381887 L346.555931,197.998275 L362.195066,249.127227 L386.492763,332.380039 C386.492763,332.380039 407.440789,342.200117 407.440789,352.52293 C407.440789,362.845742 386.738816,381.223477 386.738816,381.223477 L359.829605,362.259219 L377.791447,346.847617 L372.209597,345.014248" id="Path-13"></path>
                <path d="M304.248621,223.234004 C304.652764,224.093385 304.662295,224.176197 305.206642,225.390635 C316.126163,249.752081 353.655921,341.580078 353.655921,341.580078 L362.804605,352.562031 L386.589716,332.744282" id="Path-14"></path>
                <path d="M329.263158,283.14 C346.967075,251.131788 367.222368,267.10618 367.222368,267.10618" id="Path-15"></path>
                <path d="M45.6916148,179.526628 C45.6241866,179.64254 45.3011119,180.260807 45.2339098,180.376327 C11.9278755,237.628948 6.36940789,246.722202 6.36940789,259.042266 C6.36940789,271.387188 14.1144737,271.817305 23.7105263,271.817305 C33.3065789,271.817305 42.3042763,265.644844 42.3042763,265.644844 L53.9526316,273.588047 L79.3233906,230.682513 L80.764779,228.244922 L81.3411597,227.270181" id="Path-16"></path>
                <path d="M7.71338101,266.76117 C7.2739891,266.720985 6.83456805,266.705214 6.40335848,266.707925 C3.68432043,266.725026 1.29177632,267.477031 1.29177632,267.477031 L2.58355263,353.444609 C2.58355263,353.444609 7.42072368,344.775234 17.0167763,344.775234 C26.6128289,344.775234 39.6424342,344.434492 39.6424342,352.534102 C39.6424342,360.633711 50.2898026,357.1425 50.2898026,357.1425 L56.8541307,274.344908 L54.9625266,271.966307" id="Path-17"></path>
                <polyline id="Path-18" points="39.598916 353.816352 4.71973684 352.103984 0.274013158 360.980039 0.290789474 380.860391 11.1171053 395.00957 47.5664474 384.094648 37.0756579 370.247109 56.8828947 381.536289 61.2838816 362.449141 52.1515047 357.808741 50.1486384 356.791032"></polyline>
                <path d="M160.912829,134.325039 C160.912829,134.325039 166.749703,129.6215 169.611821,129.623639 C171.995539,129.62542 255.511068,129.623639 255.511068,129.623639 L261.096141,134.399912" id="Path-19"></path>
                <path d="M103.839618,640.216926 C103.839618,640.216926 78.2892663,639.949382 67.2029866,637.729899 C56.1167069,635.510416 54.7329967,634.792946 52.4152445,633.722017 C50.0974923,632.651089 31.815769,606.510176 31.815769,602.195561 C31.815769,597.880946 32.4857442,593.86176 32.4857442,593.86176 L30.5821907,592.600933" id="Path-20"></path>
                <path d="M295.595811,702.866819 C295.595811,702.866819 293.301567,697.512144 291.516596,697.512144 C289.731624,697.512144 223.208652,694.179716 219.360121,695.218542 C215.511591,696.257368 213.185834,696.850048 211.312622,697.896194 C209.43941,698.94234 198.754161,702.561467 198.754161,702.561467" id="Path-21"></path>
            </g>
            <g id="Arm" transform="translate(123.000000, 805.000000)" stroke="#000000" stroke-width="5">
                <path d="M4.34129607,220.287962 C13.1149589,172.545335 31.6920573,165.969685 31.6920573,165.969685 L31.9627404,152.518156 L53.4408554,128.222986 L53.7939203,102.585607 L84.9342448,67.0111686 L106.176983,64.5033561 L112.173202,52.5058869 C112.173202,52.5058869 89.5417418,24.5196413 109.884165,24.5196413 C130.226588,24.5196413 101.387069,0.312775088 121.547075,0.312775088 C141.707081,0.312775088 342.006686,78.3846281 342.006686,78.3846281 L370.793244,76.3183319 L393.048102,89.128191 C393.048102,89.128191 401.250977,75.2822403 410.57189,82.2052157 C419.892803,89.128191 428.707657,97.8290053 428.707657,97.8290053 L447.220027,64.5739987 C447.220027,64.5739987 473.864658,46.4482835 473.864658,67.7882372 C473.864658,89.128191 436.77519,151.588028 436.77519,151.588028 L417.444887,126.545224 C417.444887,126.545224 437.110602,158.15779 432.90913,166.935134 C428.707657,175.712478 302.504607,470.398107 302.504607,470.398107 L321.175856,480.794344 C321.175856,480.794344 334.439328,463.681173 348.032327,475.725737 C361.625326,487.770301 371.49349,521.042969 371.49349,521.042969 L400.397736,534.853598 L411.336864,581.148052 L316.691932,640.81162 L124.995343,546.480194 L148.003405,535.536477 C148.003405,535.536477 137.482071,517.834617 142.742738,506.743728 C148.003405,495.652839 162.261343,482.448559 162.261343,482.448559 C162.261343,482.448559 132.250826,452.725682 132.250826,429.525473 C132.250826,406.325264 129.64403,386.498239 129.64403,386.498239 C129.64403,386.498239 131.385817,357.06382 139.694611,357.06382 C148.003405,357.06382 163.155774,353.584672 163.155774,353.584672 L183.015675,350.488171 L207.765525,363.65713 L211.084335,375.160101 C211.084335,375.160101 218.07502,397.53026 231.85632,380.593695 C245.63762,363.65713 324.447591,195.251045 324.447591,195.251045 C324.447591,195.251045 274.518329,177.737566 288.511468,152.141395 C302.504607,126.545224 307.553435,110.638864 307.553435,110.638864 L290.629858,116.602278 L132.21552,64.7270577 L126.872471,74.5463798 L131.238707,87.3856734 C131.238707,87.3856734 121.864834,121.035101 103.399539,130.018486 C84.9342448,139.001871 73.3360627,141.444927 73.3360627,141.444927 L52.7464944,163.491307 L43.4667718,171.42094 C43.4667718,171.42094 39.0828826,163.503081 21.7120893,191.895522 C4.34129607,220.287962 -4.43236679,268.03059 4.34129607,220.287962 Z" id="Path"></path>
                <path d="M118.173728,17.5601624 C126.082503,37.0883909 127.07943,36.8963887 134.209855,41.5684434 C141.34028,46.240498 292.942452,97.0597594 298.044371,97.0597594 C303.146291,97.0597594 338.553184,94.0010569 342.599534,89.534338 C346.645883,85.067619 342.181038,77.9208687 342.181038,77.9208687" id="Path-2"></path>
                <path d="M267.976634,415.89549 C368.751535,198.151609 366.40849,203.738341 366.40849,203.738341 C366.40849,203.738341 332.934142,189.474174 332.934142,173.775324 C332.934142,158.076473 350.777532,111.971934 350.777532,111.971934 L393.869291,88.6329941" id="Path-3"></path>
                <path d="M268.680347,414.850145 C186.751094,441.605124 147.343166,424.247588 151.650742,413.842133 C155.958319,403.436678 200.59878,407.071387 217.130704,394.143236 C233.662628,381.215084 237.890238,371.286968 237.890238,371.286968" id="Path-4"></path>
                <path d="M162.600943,482.370935 C345.851541,556.310466 306.334324,541.648962 306.334324,541.648962 C306.334324,541.648962 331.625343,550.078394 350.303059,538.275589 C368.980775,526.472784 372.13149,521.25139 372.13149,521.25139" id="Path-5"></path>
                <path d="M364.41671,555.685589 C372.739591,578.458547 376.755373,601.381925 376.755373,601.381925 L352.09371,590.463941" id="Path-6"></path>
                <polyline id="Path-7" points="365.738598 556.957891 353.979436 590.37933 314.401115 613.722631 148.576251 536.391093"></polyline>
                <path d="M401.106926,535.855222 C401.106926,535.855222 340.560083,572.479353 324.424908,572.479353 C308.289733,572.479353 306.100161,574.823397 294.726288,570.113372 C283.352415,565.403346 147.689772,511.471516 147.689772,505.592602 C147.689772,499.713688 153.35948,491.813505 153.35948,491.813505" id="Path-8"></path>
                <ellipse id="Oval" cx="144.849359" cy="24.6197183" rx="6.77884615" ry="7.53521127"></ellipse>
                <path d="M395.68695,127.973373 C388.190579,123.775003 377.708343,132.176467 372.274221,146.738569 C366.8401,161.300672 368.511884,176.509039 376.008255,180.70741 C383.504627,184.905781 393.986863,176.504316 399.420984,161.942214 C404.855106,147.380112 403.183322,132.171744 395.68695,127.973373 Z" id="Oval-2"></path>
            </g>
            <g id="With_skin" transform="translate(2259.000000, 2201.000000)" stroke="#000000" stroke-width="5">
                <path d="M303.10675,176.797833 C329.01968,163.282745 359.14307,137.926953 389.165543,155.133446" id="Path-3"></path>
                <path d="M310.078125,172.614505 C321.211704,167.757532 331.54265,160.669487 343.478862,158.043588 C358.358479,154.770156 384.193083,168.908233 389.202682,155.207547" id="Path-4"></path>
                <path d="M334.343353,202.51082 C345.625804,195.358419 358.239908,194.387037 372.315811,193.537712" id="Path-5"></path>
                <path d="M363.480469,213.073555 C368.175886,193.567572 368.146876,201.999638 366.622971,187.973585" id="Path-6"></path>
                <path d="M334.195312,203.49434 C358.550792,214.260591 347.131286,212.614858 367.899798,211.995725" id="Path-7"></path>
                <path d="M390.067245,242.996816 C370.376228,273.565822 415.456238,257.257857 415.456238,253.52587" id="Path-8"></path>
                <path d="M405.77458,290.283612 L416.137689,273.441786" id="Path-2" transform="translate(410.956135, 281.862699) rotate(-49.000000) translate(-410.956135, -281.862699) "></path>
                <path d="M408.040741,273.566775 C399.966453,258.347712 430.460519,269.392216 436.801025,256.564004 C439.690277,250.718424 439.196594,243.742315 440.394379,237.331471" id="Path-9"></path>
                <path d="M438.974533,236.285861 C416.066791,217.60379 402.309757,203.904919 394.710342,175.354773 C394.710342,175.354773 408.195511,158.352002 408.195511,132.841109 C408.195511,107.330216 383.694763,55.7021496 361.00415,46.1902981 C338.313538,36.6784467 316.060318,13.1952215 293.820557,20.281955 C271.580795,27.3686885 254.724335,48.6221525 254.724335,56.3151655 C254.724335,64.0081785 258.095627,121.455797 237.423752,124.541816 C216.751877,127.627836 176.081039,144.980171 176.081039,174.337571 C176.081039,203.694971 146.20372,178.99245 122.833466,224.140062 C99.4632111,269.287674 89.578125,293.983459 89.578125,293.983459 C89.578125,293.983459 93.1782074,349.862217 111.824615,361.60383 C130.471024,373.345443 128.216766,367.060345 125.525116,398.849599 C122.833466,430.638854 120.585937,455.536731 120.585937,455.536731 L314.492432,455.132545 C314.492432,455.132545 306.632812,425.370959 314.721222,408.57028 C322.809631,391.769602 356.058243,408.187765 382.126877,382.279422 C408.195511,356.371079 389.076382,336.042191 389.076382,336.042191 C389.076382,336.042191 397.792296,334.154267 400.985252,325.767438 C400.985252,311.900479 394.710342,310.179319 394.710342,310.179319 L408.195511,305.017523 C408.195511,305.017523 413.696571,289.879061 413.696571,289.879061" id="Path-10"></path>
                <path d="M297.080818,19.1820091 C297.080818,19.1820091 259.10836,0.0505232901 236.414383,0.0505232901 C213.720406,0.0505232901 172.602081,3.7959832 158.558395,9.26260318 C144.514709,14.7292232 72.8394241,44.8882591 67.782486,56.8353331 C62.7255478,68.7824071 55.310051,85.380992 55.310051,85.380992 L36.2127914,92.6698187 L32.6160736,129.110584 L25.0895462,130.12105 L25.8768539,137.814063 L15.2010956,143.179636 L14.6425781,149.454629 C14.6425781,149.454629 0.373466492,149.656722 0.373466492,156.743455 C0.373466492,163.830189 -0.861328125,184.073187 6.890625,189.842947 C14.6425781,195.612706 32.9525299,217.273725 32.9525299,217.273725 C32.9525299,217.273725 31.943161,260.289254 38.5713501,274.361675 C45.1995392,288.434095 57.1100922,305.03268 72.3885727,312.119413 C87.6670532,319.206147 96.4283752,325.076953 96.4283752,325.076953" id="Path-11"></path>
                <path d="M26.9914158,165.380159 L15.7537754,164.669465 L14.9698322,159.404938 C14.9698322,159.404938 8.22724799,156.872037 8.22724799,161.126098 C8.22724799,165.380159 4.40510444,177.525958 9.68746833,181.877697 C14.9698322,186.229437 31.5975025,203.437669 31.5975025,203.437669 L26.9914158,165.380159 Z" id="Path-12"></path>
                <path d="M377.261719,312.028471 C396.362343,312.028471 403.77784,306.966038 403.77784,306.966038" id="Path-13"></path>
                <path d="M204.271302,305.827349 C193.037026,305.827349 185.846955,287.810744 185.846955,287.810744 C185.846955,287.810744 172.136361,287.807376 166.857361,280.926104 C161.578362,274.044832 145.741364,259.669271 150.794938,233.656513 C155.848511,207.643755 174.949135,204.605622 174.949135,204.605622 C174.949135,204.605622 189.440308,198.125168 198.877907,206.730968 C208.315506,215.336768 211.90886,223.632693 211.90886,234.565933 C211.90886,245.499173 200.90001,249.143586 200.90001,249.143586 C200.90001,249.143586 203.036507,232.33954 198.204995,226.56978 C193.373482,220.80002 191.505868,216.549327 186.183411,216.549327 C180.860954,216.549327 170.679505,217.866301 168.768433,217.866301 C166.857361,217.866301 159.216439,251.474394 167.082787,258.557759 C174.949135,265.641124 193.037026,280.218778 193.037026,280.218778" id="Path-14" transform="translate(180.860954, 254.046236) rotate(-1.000000) translate(-180.860954, -254.046236) "></path>
                <path d="M204.444,305.703226 C204.444,305.703226 218.151229,307.121247 218.151229,301.149394 C218.151229,295.177541 228.715957,278.070355 216.579978,272.502688 C204.444,266.935022 183.99755,265.21723 180.515228,259.952703 C177.032905,254.688176 174.556587,244.260169 180.626258,239.90843 C186.69593,235.55669 193.709554,239.911798 196.692046,234.849364 L203.545661,238.392731" id="Path-15" transform="translate(199.674539, 270.349803) rotate(-1.000000) translate(-199.674539, -270.349803) "></path>
                <path d="M255.814453,68.1188679 L235.142578,68.1188679" id="Line" stroke-linecap="square"></path>
                <path d="M255.814453,50.8735849 L171.404297,40.5264151" id="Line" stroke-linecap="square"></path>
                <path d="M240.310547,25.0056604 L152.455078,12.9339623" id="Line" stroke-linecap="square"></path>
                <path d="M100.775391,137.1 L188.630859,149.171698" id="Line" stroke-linecap="square"></path>
                <path d="M169.681641,40.5264151 L164.513672,50.8735849" id="Line" stroke-linecap="square"></path>
                <path d="M148.205635,144.860377 L129.199219,183.857621" id="Line" stroke-linecap="square"></path>
                <path d="M247.042888,119.423399 C231.9358,83.6834488 196.81504,58.6339623 155.900391,58.6339623 C101.195076,58.6339623 56.8476562,103.415624 56.8476562,158.656604 C56.8476562,179.631574 59.2305123,201.314769 73.4214935,218.991517 C85.8341476,234.453123 110.293739,247.355292 110.293739,247.355292 L121.171371,224.609707 C121.171371,224.609707 98.3431131,214.813646 90.5874939,193.005705 C82.8318747,171.197763 84.7355255,155.185541 90.5874939,138.844738 C96.4394623,122.503934 114.020759,108.984269 121.171371,103.980299 C128.321984,98.9763298 142.78158,93.9380822 155.900391,93.9531103 C161.036026,93.9589933 174.381777,95.7278977 182.665489,97.910768 C190.949201,100.093638 190.571774,101.58975 198.415009,103.980299 C203.916453,105.657091 209.430602,112.124457 215.303266,117.470197 C218.604237,120.474988 222.01848,123.125405 225.607407,124.371499 C235.581293,127.834483 247.569757,120.669852 247.042888,119.423399 Z" id="Oval"></path>
            </g>
            <path d="M0.969851378,1583.94266 C899.173768,1491.6324 2007.28528,599.007073 2136.05724,775.954894 C2264.82921,952.902714 2303.43159,2158.80144 2473.86113,2158.80144 C2644.29067,2158.80144 2894,521.311045 2894,521.311045" id="Path-22" stroke="#000000" stroke-width="8"></path>
            <text id="Industrial-robot" font-family="Helvetica" font-size="72" font-weight="normal" fill="#1F2934">
                <tspan x="38.3691406" y="701">Industrial robot</tspan>
            </text>
            <text id="Humanoid-robot" font-family="Helvetica" font-size="72" font-weight="normal" fill="#1F2934">
                <tspan x="653.351562" y="266">Humanoid robot</tspan>
            </text>
            <text id="Cartoon-character" font-family="Helvetica" font-size="72" font-weight="normal" fill="#1F2934">
                <tspan x="1499.35938" y="119">Cartoon character</tspan>
            </text>
            <text id="Android-with-skin" font-family="Helvetica" font-size="72" font-weight="normal" fill="#1F2934">
                <tspan x="2355.41602" y="2788">Android </tspan>
                <tspan x="2341.45898" y="2874">with skin</tspan>
            </text>
            <text id="Real-person" font-family="Helvetica" font-size="72" font-weight="normal" fill="#1F2934">
                <tspan x="2865.38477" y="69">Real person</tspan>
            </text>
        </g>
    </g>
</svg>